<mxfile host="app.diagrams.net" modified="2023-04-19T15:18:25.571Z" agent="Mozilla/5.0 (X11; Linux x86_64; rv:109.0) Gecko/20100101 Firefox/111.0" etag="PmbXLNXVA614pcPjcCXS" version="21.1.8" type="device">
  <diagram name="Page-1" id="Vplc2FbkKxrORxa0Ai_x">
    <mxGraphModel dx="447" dy="270" grid="1" gridSize="10" guides="1" tooltips="1" connect="1" arrows="1" fold="1" page="1" pageScale="1" pageWidth="850" pageHeight="1100" math="0" shadow="0">
      <root>
        <mxCell id="0" />
        <mxCell id="1" parent="0" />
        <mxCell id="NzjxVL5mABf7hT2KAsvz-4" style="edgeStyle=orthogonalEdgeStyle;rounded=0;orthogonalLoop=1;jettySize=auto;html=1;entryX=0;entryY=0.5;entryDx=0;entryDy=0;" parent="1" source="NzjxVL5mABf7hT2KAsvz-1" target="NzjxVL5mABf7hT2KAsvz-2" edge="1">
          <mxGeometry relative="1" as="geometry" />
        </mxCell>
        <mxCell id="NzjxVL5mABf7hT2KAsvz-44" style="edgeStyle=orthogonalEdgeStyle;rounded=0;orthogonalLoop=1;jettySize=auto;html=1;endArrow=none;endFill=0;startArrow=classic;startFill=1;" parent="1" source="NzjxVL5mABf7hT2KAsvz-1" edge="1">
          <mxGeometry relative="1" as="geometry">
            <mxPoint x="170" y="100" as="targetPoint" />
          </mxGeometry>
        </mxCell>
        <mxCell id="NzjxVL5mABf7hT2KAsvz-1" value="&lt;div&gt;m=0&lt;/div&gt;" style="ellipse;whiteSpace=wrap;html=1;aspect=fixed;fillColor=#d5e8d4;strokeColor=#82b366;" parent="1" vertex="1">
          <mxGeometry x="130" y="140" width="80" height="80" as="geometry" />
        </mxCell>
        <mxCell id="NzjxVL5mABf7hT2KAsvz-2" value="&lt;div&gt;m=1&lt;/div&gt;" style="ellipse;whiteSpace=wrap;html=1;aspect=fixed;" parent="1" vertex="1">
          <mxGeometry x="280" y="140" width="80" height="80" as="geometry" />
        </mxCell>
        <mxCell id="NzjxVL5mABf7hT2KAsvz-18" style="edgeStyle=orthogonalEdgeStyle;rounded=0;orthogonalLoop=1;jettySize=auto;html=1;" parent="1" source="NzjxVL5mABf7hT2KAsvz-3" target="NzjxVL5mABf7hT2KAsvz-35" edge="1">
          <mxGeometry relative="1" as="geometry">
            <mxPoint x="580" y="180" as="targetPoint" />
          </mxGeometry>
        </mxCell>
        <mxCell id="NzjxVL5mABf7hT2KAsvz-24" style="edgeStyle=orthogonalEdgeStyle;rounded=0;orthogonalLoop=1;jettySize=auto;html=1;entryX=1;entryY=1;entryDx=0;entryDy=0;dashed=1;" parent="1" source="NzjxVL5mABf7hT2KAsvz-3" target="NzjxVL5mABf7hT2KAsvz-2" edge="1">
          <mxGeometry relative="1" as="geometry">
            <Array as="points">
              <mxPoint x="470" y="260" />
              <mxPoint x="348" y="260" />
            </Array>
          </mxGeometry>
        </mxCell>
        <mxCell id="NzjxVL5mABf7hT2KAsvz-3" value="m=0" style="ellipse;whiteSpace=wrap;html=1;aspect=fixed;direction=west;" parent="1" vertex="1">
          <mxGeometry x="430" y="140" width="80" height="80" as="geometry" />
        </mxCell>
        <mxCell id="NzjxVL5mABf7hT2KAsvz-5" style="edgeStyle=orthogonalEdgeStyle;rounded=0;orthogonalLoop=1;jettySize=auto;html=1;exitX=1;exitY=0.5;exitDx=0;exitDy=0;" parent="1" source="NzjxVL5mABf7hT2KAsvz-2" target="NzjxVL5mABf7hT2KAsvz-3" edge="1">
          <mxGeometry relative="1" as="geometry">
            <mxPoint x="220" y="190" as="sourcePoint" />
            <mxPoint x="290" y="190" as="targetPoint" />
          </mxGeometry>
        </mxCell>
        <mxCell id="NzjxVL5mABf7hT2KAsvz-6" value="&lt;font color=&quot;#ff0000&quot;&gt;invest&lt;/font&gt;" style="text;html=1;strokeColor=none;fillColor=none;align=center;verticalAlign=middle;whiteSpace=wrap;rounded=0;" parent="1" vertex="1">
          <mxGeometry x="210" y="180" width="60" height="30" as="geometry" />
        </mxCell>
        <mxCell id="NzjxVL5mABf7hT2KAsvz-7" value="&lt;font color=&quot;#ff0000&quot;&gt;month&lt;/font&gt;" style="text;html=1;strokeColor=none;fillColor=none;align=center;verticalAlign=middle;whiteSpace=wrap;rounded=0;" parent="1" vertex="1">
          <mxGeometry x="360" y="180" width="60" height="30" as="geometry" />
        </mxCell>
        <mxCell id="NzjxVL5mABf7hT2KAsvz-20" value="&lt;font color=&quot;#ff0000&quot;&gt;done&lt;/font&gt;" style="text;html=1;strokeColor=none;fillColor=none;align=center;verticalAlign=middle;whiteSpace=wrap;rounded=0;" parent="1" vertex="1">
          <mxGeometry x="510" y="180" width="60" height="30" as="geometry" />
        </mxCell>
        <mxCell id="NzjxVL5mABf7hT2KAsvz-27" value="&lt;font color=&quot;#ff0000&quot;&gt;invest&lt;/font&gt;" style="text;html=1;strokeColor=none;fillColor=none;align=center;verticalAlign=middle;whiteSpace=wrap;rounded=0;" parent="1" vertex="1">
          <mxGeometry x="360" y="230" width="60" height="30" as="geometry" />
        </mxCell>
        <mxCell id="NzjxVL5mABf7hT2KAsvz-35" value="m=0" style="ellipse;whiteSpace=wrap;html=1;aspect=fixed;fillColor=#fff2cc;strokeColor=#d6b656;" parent="1" vertex="1">
          <mxGeometry x="575" y="140" width="80" height="80" as="geometry" />
        </mxCell>
        <mxCell id="NzjxVL5mABf7hT2KAsvz-54" style="edgeStyle=orthogonalEdgeStyle;rounded=0;orthogonalLoop=1;jettySize=auto;html=1;entryX=0.5;entryY=1;entryDx=0;entryDy=0;" parent="1" edge="1">
          <mxGeometry relative="1" as="geometry">
            <Array as="points">
              <mxPoint x="675" y="170" />
              <mxPoint x="675" y="240" />
              <mxPoint x="615" y="240" />
            </Array>
            <mxPoint x="653.7298334620741" y="170" as="sourcePoint" />
            <mxPoint x="615" y="220" as="targetPoint" />
          </mxGeometry>
        </mxCell>
        <mxCell id="NzjxVL5mABf7hT2KAsvz-55" value="&lt;font color=&quot;#ff0000&quot;&gt;done&lt;/font&gt;" style="text;html=1;strokeColor=none;fillColor=none;align=center;verticalAlign=middle;whiteSpace=wrap;rounded=0;" parent="1" vertex="1">
          <mxGeometry x="615" y="215" width="60" height="30" as="geometry" />
        </mxCell>
        <mxCell id="NzjxVL5mABf7hT2KAsvz-59" style="edgeStyle=orthogonalEdgeStyle;rounded=0;orthogonalLoop=1;jettySize=auto;html=1;endArrow=none;endFill=0;startArrow=classic;startFill=1;" parent="1" edge="1">
          <mxGeometry relative="1" as="geometry">
            <mxPoint x="135" y="375" as="targetPoint" />
            <mxPoint x="135" y="415" as="sourcePoint" />
          </mxGeometry>
        </mxCell>
        <mxCell id="NzjxVL5mABf7hT2KAsvz-66" value="&lt;font color=&quot;#ff0000&quot;&gt;invest&lt;/font&gt;" style="text;html=1;strokeColor=none;fillColor=none;align=center;verticalAlign=middle;whiteSpace=wrap;rounded=0;" parent="1" vertex="1">
          <mxGeometry x="75" y="515" width="60" height="30" as="geometry" />
        </mxCell>
        <mxCell id="NzjxVL5mABf7hT2KAsvz-75" style="edgeStyle=orthogonalEdgeStyle;rounded=0;orthogonalLoop=1;jettySize=auto;html=1;entryX=0.5;entryY=1;entryDx=0;entryDy=0;" parent="1" source="NzjxVL5mABf7hT2KAsvz-76" edge="1">
          <mxGeometry relative="1" as="geometry">
            <Array as="points">
              <mxPoint x="75" y="445" />
              <mxPoint x="75" y="515" />
              <mxPoint x="135" y="515" />
            </Array>
            <mxPoint x="173.7298334620741" y="445" as="sourcePoint" />
            <mxPoint x="135" y="495" as="targetPoint" />
          </mxGeometry>
        </mxCell>
        <mxCell id="NzjxVL5mABf7hT2KAsvz-78" style="edgeStyle=orthogonalEdgeStyle;rounded=0;orthogonalLoop=1;jettySize=auto;html=1;" parent="1" source="NzjxVL5mABf7hT2KAsvz-76" target="NzjxVL5mABf7hT2KAsvz-77" edge="1">
          <mxGeometry relative="1" as="geometry" />
        </mxCell>
        <mxCell id="NzjxVL5mABf7hT2KAsvz-76" value="i=0" style="ellipse;whiteSpace=wrap;html=1;aspect=fixed;" parent="1" vertex="1">
          <mxGeometry x="95" y="415" width="80" height="80" as="geometry" />
        </mxCell>
        <mxCell id="NzjxVL5mABf7hT2KAsvz-82" style="edgeStyle=orthogonalEdgeStyle;rounded=0;orthogonalLoop=1;jettySize=auto;html=1;entryX=0.863;entryY=0.075;entryDx=0;entryDy=0;entryPerimeter=0;" parent="1" source="NzjxVL5mABf7hT2KAsvz-77" target="NzjxVL5mABf7hT2KAsvz-76" edge="1">
          <mxGeometry relative="1" as="geometry">
            <Array as="points">
              <mxPoint x="275" y="395" />
              <mxPoint x="164" y="395" />
            </Array>
          </mxGeometry>
        </mxCell>
        <mxCell id="NzjxVL5mABf7hT2KAsvz-77" value="i=1" style="ellipse;whiteSpace=wrap;html=1;aspect=fixed;" parent="1" vertex="1">
          <mxGeometry x="235" y="415" width="80" height="80" as="geometry" />
        </mxCell>
        <mxCell id="NzjxVL5mABf7hT2KAsvz-79" value="&lt;font color=&quot;#ff0000&quot;&gt;invest&lt;/font&gt;" style="text;html=1;strokeColor=none;fillColor=none;align=center;verticalAlign=middle;whiteSpace=wrap;rounded=0;" parent="1" vertex="1">
          <mxGeometry x="175" y="455" width="60" height="30" as="geometry" />
        </mxCell>
        <mxCell id="NzjxVL5mABf7hT2KAsvz-84" style="edgeStyle=orthogonalEdgeStyle;rounded=0;orthogonalLoop=1;jettySize=auto;html=1;entryX=0.713;entryY=0.988;entryDx=0;entryDy=0;exitX=1;exitY=1;exitDx=0;exitDy=0;entryPerimeter=0;" parent="1" edge="1" target="NzjxVL5mABf7hT2KAsvz-77" source="NzjxVL5mABf7hT2KAsvz-77">
          <mxGeometry relative="1" as="geometry">
            <Array as="points">
              <mxPoint x="340" y="483" />
              <mxPoint x="340" y="515" />
              <mxPoint x="292" y="515" />
            </Array>
            <mxPoint x="313.7298334620741" y="445" as="sourcePoint" />
            <mxPoint x="275" y="495" as="targetPoint" />
          </mxGeometry>
        </mxCell>
        <mxCell id="NzjxVL5mABf7hT2KAsvz-85" value="&lt;font color=&quot;#ff0000&quot;&gt;invest&lt;/font&gt;" style="text;html=1;strokeColor=none;fillColor=none;align=center;verticalAlign=middle;whiteSpace=wrap;rounded=0;" parent="1" vertex="1">
          <mxGeometry x="175" y="370" width="60" height="30" as="geometry" />
        </mxCell>
        <mxCell id="NzjxVL5mABf7hT2KAsvz-86" value="&lt;font color=&quot;#ff0000&quot;&gt;invest&lt;/font&gt;" style="text;html=1;strokeColor=none;fillColor=none;align=center;verticalAlign=middle;whiteSpace=wrap;rounded=0;" parent="1" vertex="1">
          <mxGeometry x="340" y="465" width="60" height="30" as="geometry" />
        </mxCell>
        <mxCell id="NzjxVL5mABf7hT2KAsvz-87" value="&lt;div&gt;&lt;font color=&quot;#006600&quot;&gt;b=1&lt;br&gt;&lt;/font&gt;&lt;/div&gt;" style="text;html=1;strokeColor=none;fillColor=none;align=center;verticalAlign=middle;whiteSpace=wrap;rounded=0;fontStyle=1" parent="1" vertex="1">
          <mxGeometry x="165" y="395" width="80" height="30" as="geometry" />
        </mxCell>
        <mxCell id="NzjxVL5mABf7hT2KAsvz-88" value="&lt;div&gt;&lt;font color=&quot;#006600&quot;&gt;b=1&lt;br&gt;&lt;/font&gt;&lt;/div&gt;" style="text;html=1;strokeColor=none;fillColor=none;align=center;verticalAlign=middle;whiteSpace=wrap;rounded=0;fontStyle=1" parent="1" vertex="1">
          <mxGeometry x="330" y="485" width="80" height="30" as="geometry" />
        </mxCell>
        <mxCell id="ENt79Uhcj-9WUcpKTyNv-1" value="&lt;i style=&quot;border-color: var(--border-color); color: rgb(102, 102, 102);&quot;&gt;noop&lt;/i&gt;" style="text;html=1;strokeColor=none;fillColor=none;align=center;verticalAlign=middle;whiteSpace=wrap;rounded=0;" parent="1" vertex="1">
          <mxGeometry x="75" y="535" width="60" height="30" as="geometry" />
        </mxCell>
        <mxCell id="ENt79Uhcj-9WUcpKTyNv-2" value="&lt;font color=&quot;#666666&quot;&gt;&lt;i&gt;reserve&lt;/i&gt;&lt;/font&gt;" style="text;html=1;strokeColor=none;fillColor=none;align=center;verticalAlign=middle;whiteSpace=wrap;rounded=0;" parent="1" vertex="1">
          <mxGeometry x="175" y="475" width="60" height="30" as="geometry" />
        </mxCell>
        <mxCell id="ENt79Uhcj-9WUcpKTyNv-3" value="&lt;font color=&quot;#666666&quot;&gt;&lt;i&gt;noop&lt;/i&gt;&lt;/font&gt;" style="text;html=1;strokeColor=none;fillColor=none;align=center;verticalAlign=middle;whiteSpace=wrap;rounded=0;" parent="1" vertex="1">
          <mxGeometry x="175" y="415" width="60" height="30" as="geometry" />
        </mxCell>
        <mxCell id="ENt79Uhcj-9WUcpKTyNv-4" value="&lt;font color=&quot;#666666&quot;&gt;&lt;i&gt;reserve&lt;/i&gt;&lt;/font&gt;" style="text;html=1;strokeColor=none;fillColor=none;align=center;verticalAlign=middle;whiteSpace=wrap;rounded=0;" parent="1" vertex="1">
          <mxGeometry x="340" y="505" width="60" height="30" as="geometry" />
        </mxCell>
        <mxCell id="ENt79Uhcj-9WUcpKTyNv-6" value="&lt;font color=&quot;#666666&quot;&gt;&lt;i&gt;reserve/noop&lt;/i&gt;&lt;/font&gt;" style="text;html=1;strokeColor=none;fillColor=none;align=center;verticalAlign=middle;whiteSpace=wrap;rounded=0;" parent="1" vertex="1">
          <mxGeometry x="210" y="200" width="60" height="30" as="geometry" />
        </mxCell>
        <mxCell id="ENt79Uhcj-9WUcpKTyNv-7" value="&lt;font color=&quot;#666666&quot;&gt;&lt;i&gt;reserve/noop&lt;/i&gt;&lt;/font&gt;" style="text;html=1;strokeColor=none;fillColor=none;align=center;verticalAlign=middle;whiteSpace=wrap;rounded=0;" parent="1" vertex="1">
          <mxGeometry x="360" y="250" width="60" height="30" as="geometry" />
        </mxCell>
        <mxCell id="ENt79Uhcj-9WUcpKTyNv-12" value="&lt;font color=&quot;#666666&quot;&gt;&lt;i&gt;update&lt;br&gt;v, cap, p&lt;/i&gt;&lt;/font&gt;" style="text;html=1;strokeColor=none;fillColor=none;align=center;verticalAlign=middle;whiteSpace=wrap;rounded=0;" parent="1" vertex="1">
          <mxGeometry x="360" y="200" width="60" height="30" as="geometry" />
        </mxCell>
        <mxCell id="ENt79Uhcj-9WUcpKTyNv-21" value="&lt;font color=&quot;#666666&quot;&gt;&lt;i&gt;absorbing state&lt;/i&gt;&lt;/font&gt;" style="text;html=1;strokeColor=none;fillColor=none;align=center;verticalAlign=middle;whiteSpace=wrap;rounded=0;" parent="1" vertex="1">
          <mxGeometry x="615" y="245" width="60" height="30" as="geometry" />
        </mxCell>
        <mxCell id="ENt79Uhcj-9WUcpKTyNv-22" value="&lt;font color=&quot;#666666&quot;&gt;&lt;i&gt;if reserved&lt;br&gt;&amp;amp; not barred,&lt;br&gt;cash in shares&lt;br&gt;&lt;/i&gt;&lt;/font&gt;" style="text;html=1;strokeColor=none;fillColor=none;align=center;verticalAlign=middle;whiteSpace=wrap;rounded=0;" parent="1" vertex="1">
          <mxGeometry x="485" y="210" width="110" height="30" as="geometry" />
        </mxCell>
        <mxCell id="ENt79Uhcj-9WUcpKTyNv-24" style="edgeStyle=orthogonalEdgeStyle;rounded=0;orthogonalLoop=1;jettySize=auto;html=1;endArrow=none;endFill=0;startArrow=classic;startFill=1;" parent="1" edge="1">
          <mxGeometry relative="1" as="geometry">
            <mxPoint x="475" y="375" as="targetPoint" />
            <mxPoint x="475" y="415" as="sourcePoint" />
          </mxGeometry>
        </mxCell>
        <mxCell id="ENt79Uhcj-9WUcpKTyNv-27" style="edgeStyle=orthogonalEdgeStyle;rounded=0;orthogonalLoop=1;jettySize=auto;html=1;" parent="1" source="ENt79Uhcj-9WUcpKTyNv-28" target="ENt79Uhcj-9WUcpKTyNv-31" edge="1">
          <mxGeometry relative="1" as="geometry" />
        </mxCell>
        <mxCell id="ENt79Uhcj-9WUcpKTyNv-28" value="b=1" style="ellipse;whiteSpace=wrap;html=1;aspect=fixed;" parent="1" vertex="1">
          <mxGeometry x="435" y="415" width="80" height="80" as="geometry" />
        </mxCell>
        <mxCell id="ENt79Uhcj-9WUcpKTyNv-29" style="edgeStyle=orthogonalEdgeStyle;rounded=0;orthogonalLoop=1;jettySize=auto;html=1;entryX=0.863;entryY=0.075;entryDx=0;entryDy=0;entryPerimeter=0;" parent="1" source="ENt79Uhcj-9WUcpKTyNv-31" target="ENt79Uhcj-9WUcpKTyNv-28" edge="1">
          <mxGeometry relative="1" as="geometry">
            <Array as="points">
              <mxPoint x="615" y="395" />
              <mxPoint x="504" y="395" />
            </Array>
          </mxGeometry>
        </mxCell>
        <mxCell id="ENt79Uhcj-9WUcpKTyNv-31" value="b=0" style="ellipse;whiteSpace=wrap;html=1;aspect=fixed;" parent="1" vertex="1">
          <mxGeometry x="575" y="415" width="80" height="80" as="geometry" />
        </mxCell>
        <mxCell id="ENt79Uhcj-9WUcpKTyNv-32" value="&lt;font color=&quot;#ff0000&quot;&gt;invest&lt;/font&gt;" style="text;html=1;strokeColor=none;fillColor=none;align=center;verticalAlign=middle;whiteSpace=wrap;rounded=0;" parent="1" vertex="1">
          <mxGeometry x="515" y="455" width="60" height="30" as="geometry" />
        </mxCell>
        <mxCell id="ENt79Uhcj-9WUcpKTyNv-33" style="edgeStyle=orthogonalEdgeStyle;rounded=0;orthogonalLoop=1;jettySize=auto;html=1;entryX=0.5;entryY=1;entryDx=0;entryDy=0;" parent="1" edge="1">
          <mxGeometry relative="1" as="geometry">
            <Array as="points">
              <mxPoint x="675" y="445" />
              <mxPoint x="675" y="515" />
              <mxPoint x="615" y="515" />
            </Array>
            <mxPoint x="653.7298334620741" y="445" as="sourcePoint" />
            <mxPoint x="615" y="495" as="targetPoint" />
          </mxGeometry>
        </mxCell>
        <mxCell id="ENt79Uhcj-9WUcpKTyNv-34" value="&lt;font color=&quot;#ff0000&quot;&gt;invest&lt;/font&gt;" style="text;html=1;strokeColor=none;fillColor=none;align=center;verticalAlign=middle;whiteSpace=wrap;rounded=0;" parent="1" vertex="1">
          <mxGeometry x="515" y="370" width="60" height="30" as="geometry" />
        </mxCell>
        <mxCell id="ENt79Uhcj-9WUcpKTyNv-35" value="&lt;font color=&quot;#ff0000&quot;&gt;invest&lt;/font&gt;" style="text;html=1;strokeColor=none;fillColor=none;align=center;verticalAlign=middle;whiteSpace=wrap;rounded=0;" parent="1" vertex="1">
          <mxGeometry x="615" y="515" width="60" height="30" as="geometry" />
        </mxCell>
        <mxCell id="ENt79Uhcj-9WUcpKTyNv-36" value="&lt;div&gt;&lt;font color=&quot;#0000ff&quot;&gt;p_bar&lt;/font&gt;&lt;br&gt;&lt;/div&gt;" style="text;html=1;strokeColor=none;fillColor=none;align=center;verticalAlign=middle;whiteSpace=wrap;rounded=0;fontStyle=1" parent="1" vertex="1">
          <mxGeometry x="505" y="395" width="80" height="30" as="geometry" />
        </mxCell>
        <mxCell id="ENt79Uhcj-9WUcpKTyNv-41" value="&lt;font color=&quot;#666666&quot;&gt;&lt;i&gt;do not bar&lt;/i&gt;&lt;/font&gt;" style="text;html=1;strokeColor=none;fillColor=none;align=center;verticalAlign=middle;whiteSpace=wrap;rounded=0;" parent="1" vertex="1">
          <mxGeometry x="515" y="475" width="60" height="30" as="geometry" />
        </mxCell>
        <mxCell id="ENt79Uhcj-9WUcpKTyNv-42" value="&lt;font color=&quot;#666666&quot;&gt;&lt;i&gt;bar&lt;/i&gt;&lt;/font&gt;" style="text;html=1;strokeColor=none;fillColor=none;align=center;verticalAlign=middle;whiteSpace=wrap;rounded=0;" parent="1" vertex="1">
          <mxGeometry x="515" y="415" width="60" height="30" as="geometry" />
        </mxCell>
        <mxCell id="ENt79Uhcj-9WUcpKTyNv-43" value="&lt;font color=&quot;#666666&quot;&gt;&lt;i&gt;do not bar&lt;/i&gt;&lt;/font&gt;" style="text;html=1;strokeColor=none;fillColor=none;align=center;verticalAlign=middle;whiteSpace=wrap;rounded=0;" parent="1" vertex="1">
          <mxGeometry x="615" y="555" width="60" height="30" as="geometry" />
        </mxCell>
        <mxCell id="ENt79Uhcj-9WUcpKTyNv-47" value="&lt;div&gt;&lt;font color=&quot;#0000ff&quot;&gt;1-p_bar&lt;/font&gt;&lt;br&gt;&lt;/div&gt;" style="text;html=1;strokeColor=none;fillColor=none;align=center;verticalAlign=middle;whiteSpace=wrap;rounded=0;fontStyle=1" parent="1" vertex="1">
          <mxGeometry x="605" y="535" width="80" height="30" as="geometry" />
        </mxCell>
        <mxCell id="ENt79Uhcj-9WUcpKTyNv-84" value="&lt;b&gt;Module month&lt;/b&gt;" style="text;html=1;strokeColor=none;fillColor=none;align=center;verticalAlign=middle;whiteSpace=wrap;rounded=0;" parent="1" vertex="1">
          <mxGeometry x="340" y="50" width="90" height="30" as="geometry" />
        </mxCell>
        <mxCell id="ENt79Uhcj-9WUcpKTyNv-85" value="&lt;b&gt;Module investor&lt;/b&gt;" style="text;html=1;strokeColor=none;fillColor=none;align=center;verticalAlign=middle;whiteSpace=wrap;rounded=0;" parent="1" vertex="1">
          <mxGeometry x="165" y="340" width="95" height="30" as="geometry" />
        </mxCell>
        <mxCell id="ENt79Uhcj-9WUcpKTyNv-87" value="&lt;b&gt;Module barred&lt;/b&gt;" style="text;html=1;strokeColor=none;fillColor=none;align=center;verticalAlign=middle;whiteSpace=wrap;rounded=0;" parent="1" vertex="1">
          <mxGeometry x="505" y="340" width="90" height="30" as="geometry" />
        </mxCell>
        <mxCell id="zWdBbxthgLTNzjshTgqb-2" style="edgeStyle=orthogonalEdgeStyle;rounded=0;orthogonalLoop=1;jettySize=auto;html=1;exitX=0.938;exitY=0.275;exitDx=0;exitDy=0;exitPerimeter=0;entryX=0.75;entryY=0.025;entryDx=0;entryDy=0;entryPerimeter=0;" edge="1" parent="1" source="NzjxVL5mABf7hT2KAsvz-77" target="NzjxVL5mABf7hT2KAsvz-77">
          <mxGeometry relative="1" as="geometry">
            <Array as="points">
              <mxPoint x="340" y="437" />
              <mxPoint x="340" y="400" />
              <mxPoint x="295" y="400" />
            </Array>
            <mxPoint x="317" y="415" as="sourcePoint" />
            <mxPoint x="280" y="410" as="targetPoint" />
          </mxGeometry>
        </mxCell>
        <mxCell id="zWdBbxthgLTNzjshTgqb-8" value="&lt;font color=&quot;#ff0000&quot;&gt;done&lt;/font&gt;" style="text;html=1;strokeColor=none;fillColor=none;align=center;verticalAlign=middle;whiteSpace=wrap;rounded=0;" vertex="1" parent="1">
          <mxGeometry x="340" y="395" width="60" height="30" as="geometry" />
        </mxCell>
        <mxCell id="zWdBbxthgLTNzjshTgqb-9" value="&lt;div&gt;&lt;font color=&quot;#006600&quot;&gt;b=0&lt;/font&gt;&lt;/div&gt;" style="text;html=1;strokeColor=none;fillColor=none;align=center;verticalAlign=middle;whiteSpace=wrap;rounded=0;fontStyle=1" vertex="1" parent="1">
          <mxGeometry x="330" y="415" width="80" height="30" as="geometry" />
        </mxCell>
      </root>
    </mxGraphModel>
  </diagram>
</mxfile>
